<svg width="48" height="48" viewBox="0 0 48 48" fill="none" xmlns="http://www.w3.org/2000/svg">
<path d="M24 0C17.6348 0 11.5303 2.52856 7.02944 7.02944C2.52856 11.5303 0 17.6348 0 24C0 30.3652 2.52856 36.4697 7.02944 40.9706C11.5303 45.4714 17.6348 48 24 48C30.3652 48 36.4697 45.4714 40.9706 40.9706C45.4714 36.4697 48 30.3652 48 24C48 17.6348 45.4714 11.5303 40.9706 7.02944C36.4697 2.52856 30.3652 0 24 0Z" fill="#CFBCAB"/>
<path d="M27.249 30.3614H33.46L34.4351 24.0519H27.2477V20.6035C27.2477 17.9824 28.1042 15.6582 30.556 15.6582H34.4957V10.1521C33.8035 10.0586 32.3395 9.854 29.5732 9.854C23.7968 9.854 20.4103 12.9045 20.4103 19.8544V24.0519H14.4722V30.3614H20.4103V47.7032C21.5863 47.8801 22.7774 48.0001 24.0002 48.0001C25.1054 48.0001 26.1842 47.899 27.249 47.755V30.3614Z" fill="white"/>
</svg>
