<svg width="46" height="46" viewBox="0 0 46 46" fill="none" xmlns="http://www.w3.org/2000/svg">
<path d="M46 39.6111C46 43.1403 43.1403 46 39.6111 46H6.38889C2.86094 46 0 43.1403 0 39.6111V6.38889C0 2.85967 2.86094 0 6.38889 0H39.6111C43.1403 0 46 2.85967 46 6.38889V39.6111Z" fill="#CFBCAB"/>
<path d="M7.6665 16.6109H14.0554V38.3332H7.6665V16.6109ZM10.8418 14.0554H10.806C8.89956 14.0554 7.6665 12.6345 7.6665 10.8597C7.6665 9.0465 8.93789 7.6665 10.8788 7.6665C12.8223 7.6665 14.0196 9.0465 14.0554 10.8597C14.0554 12.6332 12.8223 14.0554 10.8418 14.0554ZM38.3332 38.3332H31.9443V26.7067C31.9443 23.8981 30.379 21.9814 27.8656 21.9814C25.9477 21.9814 24.9101 23.2746 24.4067 24.5242C24.2227 24.9714 24.2776 26.2083 24.2776 26.8332V38.3332H17.8887V16.6109H24.2776V19.9536C25.1989 18.5276 26.6415 16.6109 30.3317 16.6109C34.9036 16.6109 38.3319 19.4859 38.3319 25.9055L38.3332 38.3332Z" fill="white"/>
</svg>
